HIERARCHY
ROOT Hips
{
  OFFSET 0 89.5177 0.535
  CHANNELS 6 Xposition Yposition Zposition Zrotation Xrotation Yrotation
  JOINT Spine
  {
    OFFSET 12.0259 -0.162855 1.69034e-005
    CHANNELS 3 Zrotation Xrotation Yrotation
    JOINT Spine1
    {
      OFFSET 15.3169 -0.0121922 0
      CHANNELS 3 Zrotation Xrotation Yrotation
      JOINT Spine2
      {
        OFFSET 15.3176 -0.0121908 0
        CHANNELS 3 Zrotation Xrotation Yrotation
        JOINT Neck
        {
          OFFSET 19.9142 1.56338 0
          CHANNELS 3 Zrotation Xrotation Yrotation
          JOINT Head
          {
            OFFSET 6.92651 0 0
            CHANNELS 3 Zrotation Xrotation Yrotation
            End Site
            {
              OFFSET 20.7666 0 0
            }
          }
          JOINT LeftShoulder
          {
            OFFSET -6.20654 0.708824 7.28219
            CHANNELS 3 Zrotation Xrotation Yrotation
            JOINT LeftArm
            {
              OFFSET 14.108 0 -1.52588e-005
              CHANNELS 3 Zrotation Xrotation Yrotation
              JOINT LeftForeArm
              {
                OFFSET 28.5802 0 0
                CHANNELS 3 Zrotation Xrotation Yrotation
                JOINT LeftHand
                {
                  OFFSET 27.092 0 0
                  CHANNELS 3 Zrotation Xrotation Yrotation
                  End Site
                  {
                    OFFSET 9.55928 -0.186424 0.145352
                  }
                }
              }
            }
          }
          JOINT RightShoulder
          {
            OFFSET -6.20654 0.708866 -7.28218
            CHANNELS 3 Zrotation Xrotation Yrotation
            JOINT RightArm
            {
              OFFSET 14.108 0 1.52588e-005
              CHANNELS 3 Zrotation Xrotation Yrotation
              JOINT RightForeArm
              {
                OFFSET 28.5802 0 0
                CHANNELS 3 Zrotation Xrotation Yrotation
                JOINT RightHand
                {
                  OFFSET 27.092 0 0
                  CHANNELS 3 Zrotation Xrotation Yrotation
                  End Site
                  {
                    OFFSET 9.55929 -0.186417 -0.145354
                  }
                }
              }
            }
          }
        }
      }
    }
  }
  JOINT LeftUpLeg
  {
    OFFSET 0.005 -0.535 8.837
    CHANNELS 3 Zrotation Xrotation Yrotation
    JOINT LeftLeg
    {
      OFFSET 39.9035 0 0
      CHANNELS 3 Zrotation Xrotation Yrotation
      JOINT LeftFoot
      {
        OFFSET 39.6689 0 0
        CHANNELS 3 Zrotation Xrotation Yrotation
        JOINT LeftToe
        {
          OFFSET 10.1624 13.6296 0
          CHANNELS 3 Zrotation Xrotation Yrotation
          End Site
          {
            OFFSET 8.38147 0 0
          }
        }
      }
    }
  }
  JOINT RightUpLeg
  {
    OFFSET 0.005 -0.535 -8.837
    CHANNELS 3 Zrotation Xrotation Yrotation
    JOINT RightLeg
    {
      OFFSET 39.9035 0 0
      CHANNELS 3 Zrotation Xrotation Yrotation
      JOINT RightFoot
      {
        OFFSET 39.6689 0 0
        CHANNELS 3 Zrotation Xrotation Yrotation
        JOINT RightToe
        {
          OFFSET 10.1624 13.6296 0
          CHANNELS 3 Zrotation Xrotation Yrotation
          End Site
          {
            OFFSET 8.38147 0 0
          }
        }
      }
    }
  }
}
MOTION
Frames:	19
Frame Time:	0.0333333
163.568 76.2377 -18.5378 117.044 -54.8955 24.2647 3.77256 -0.587076 0.639669 7.552 -1.13027 1.3168 7.552 -1.13027 1.31679 -8.31066e-012 -9.0191e-006 -5.27751e-005 -26.9462 22.8592 -5.15558 -176.33 -18.0672 -78.3144 -54.8453 -25.9485 57.2652 -84.8168 8.44835e-016 -1.98785e-016 -70.9975 -67.3027 -79.3585 -176.497 10.8513 71.988 -36.7778 2.65124 -48.2166 -111.914 -7.95139e-016 -1.27222e-014 -90.8019 44.2325 100.991 -57.7051 -2.01593 -173.211 -63.4531 0 -3.18055e-015 30.7862 6.9806 -9.2293 90 7.95139e-016 -0 -54.001 -3.19076 158.344 -63.8134 0 7.95139e-016 23.6651 -3.55871 6.08757 90 -2.48481e-016 -0 
163.267 75.9043 -19.5044 115.725 -54.6558 23.4555 3.34073 -0.17984 0.753759 6.68358 -0.314954 1.51685 6.68358 -0.314954 1.51684 -8.32338e-012 -9.0191e-006 -5.27751e-005 -27.0755 22.6262 -5.11421 -176.433 -18.3126 -78.7795 -62.2494 -33.2285 48.3202 -87.9312 1.19271e-015 -0 -72.3502 -68.6525 -80.6136 -176.962 9.43382 72.0574 -36.802 11.4926 -47.2633 -116.381 0 -6.36111e-015 -90.9385 44.7479 101.073 -56.9126 -2.28943 -173.621 -64.3289 0 3.18055e-015 31.2446 7.15802 -9.44664 90 7.95139e-016 -0 -55.7103 -4.21683 158.057 -66.6338 1.59028e-015 8.74653e-015 23.6748 -3.91318 6.06743 90 1.08924e-015 3.18055e-015 
162.736 74.7272 -20.4036 114.202 -54.5116 23.516 2.92844 0.147877 0.736576 5.85477 0.33366 1.46478 5.85477 0.33366 1.46477 -8.31066e-012 -9.0191e-006 -5.27751e-005 -26.9023 22.9235 -4.34806 -176.665 -19.5358 -80.115 -74.5331 -42.4014 34.7121 -88.9835 3.97569e-016 -7.95139e-016 -69.6165 -68.1422 -77.6983 -177.652 8.01656 73.6138 -40.2142 23.7507 -44.7652 -118.29 0 6.36111e-015 -90.8084 44.2464 100.995 -57.0035 -1.13001 -174.323 -66.9227 3.18055e-015 1.59028e-015 31.9009 7.84083 -9.41104 90 -7.95139e-016 -3.18055e-015 -57.8848 -4.00002 156.855 -70.9599 0 -3.18056e-015 26.6477 -4.13886 6.41927 90 1.61513e-015 -6.36111e-015 
161.95 72.8649 -21.6322 111.542 -53.8553 23.5411 2.44212 0.341451 0.589507 4.88073 0.708172 1.1641 4.88073 0.708172 1.16409 -8.3043e-012 -9.0191e-006 -5.27751e-005 -25.0166 22.5129 -4.27907 -177.855 -18.7548 -83.3539 -88.3396 -51.7871 18.3001 -89.6378 0 -1.59028e-015 -68.9394 -68.5252 -76.8933 -178.488 6.25971 76.3949 -44.9937 37.2587 -41.4964 -118.428 -9.54166e-015 -6.36111e-015 -90.4709 44.5286 100.453 -57.2043 0.569509 -175.673 -70.6904 -6.36111e-015 3.18055e-015 32.3731 8.87631 -10.0306 90 0 -0 -58.0185 -1.82723 155.288 -75.7782 -4.77083e-015 2.38542e-015 29.8865 -5.14272 7.9447 90 2.42269e-016 -6.36111e-015 
161.026 70.9029 -23.6349 107.41 -52.5372 22.6327 2.05809 0.581308 0.347135 4.11294 1.17518 0.673366 4.11294 1.17518 0.673356 -8.3043e-012 -9.0191e-006 -5.27751e-005 -23.2812 20.0191 -4.32927 -179.06 -20.5109 -87.3193 -110.289 -55.4066 -6.14272 -88.5783 -7.95139e-015 -7.95139e-015 -71.6229 -68.7185 -79.8048 -179.08 5.53882 80.5581 -50.7845 51.0876 -37.6018 -118.315 3.18055e-015 -4.77083e-015 -90.2377 43.886 100.249 -56.3089 2.17672 -177.182 -74.7422 0 -3.18055e-015 34.2887 10.4075 -11.6993 90 0 -0 -54.7207 0.915773 153.462 -80.2998 1.59028e-015 3.18056e-015 36.149 -3.1167 8.62729 90 -9.93923e-017 -3.18055e-015 
160.029 70.1285 -26.2912 102.423 -50.3439 20.3264 1.76426 0.793567 0.230728 3.52582 1.59433 0.437122 3.52582 1.59433 0.437112 -8.30589e-012 -9.0191e-006 -5.27751e-005 -21.7211 17.1642 -4.03897 179.726 -22.6302 -90.7127 -130.583 -55.7756 -28.1795 -87.67 6.36111e-015 -3.18055e-015 -69.935 -69.73 -77.7832 -179.445 6.13084 84.8212 -58.6315 62.1742 -31.0747 -118.716 -9.54166e-015 3.77691e-015 -90.097 44.1657 99.9906 -53.0065 2.33707 -179.034 -76.2386 0 -3.18055e-015 36.644 11.7893 -13.0701 90 0 -6.36111e-015 -50.6052 1.65422 151.85 -84.2419 0 3.18056e-015 41.2262 -0.557755 4.02393 90 1.98785e-016 -0 
158.983 71.2844 -29.7134 96.8981 -46.8042 15.9979 1.33284 0.857359 0.505104 2.65851 1.72668 0.990445 2.65851 1.72668 0.990436 -8.30589e-012 -9.0191e-006 -5.27751e-005 -19.1592 13.7304 -3.24326 179.081 -25.004 -92.1733 -144.231 -54.3491 -40.5251 -86.8237 -9.54166e-015 -0 -69.0684 -70.3378 -76.7372 -179.63 7.77772 87.2652 -68.8731 68.6222 -22.1484 -119.107 6.36111e-015 -0 -90.0809 44.0584 99.9884 -47.0701 0.30612 179.811 -73.675 0 -3.18055e-015 36.9925 13.3146 -15.4479 90 0 -6.36111e-015 -43.5769 -3.47399 149.801 -82.2629 1.59028e-015 -6.36111e-015 44.2719 0.673476 1.63854 90 -1.98785e-016 3.18055e-015 
158.204 74.1831 -33.6394 92.3956 -43.5798 12.4163 0.86102 1.01654 0.684365 1.71023 2.04366 1.35385 1.71023 2.04366 1.35385 -8.30748e-012 -9.0191e-006 -5.27751e-005 -15.8038 9.90077 -2.32087 178.262 -26.056 -93.9515 -150.554 -53.84 -46.6262 -86.7925 3.18055e-015 9.54166e-015 -69.0409 -70.7127 -76.6436 -179.777 9.26379 88.6138 -74.8882 72.5332 -17.7784 -119.594 -1.27222e-014 -1.59028e-015 -90.0928 44.9835 99.8234 -38.9 -1.38302 -179.92 -66.2611 -6.36111e-015 3.18055e-015 33.8382 13.9637 -18.2504 90 -1.19271e-015 6.36111e-015 -35.8726 -10.7175 149.324 -76.0302 3.18056e-015 -4.77083e-015 44.1038 1.36046 -0.347368 90 2.38542e-015 -3.18055e-015 
157.694 78.9584 -37.5933 89.5826 -41.4134 10.3089 0.354664 1.26844 0.657471 0.69499 2.54131 1.30772 0.69499 2.54131 1.30771 -8.30907e-012 -9.0191e-006 -5.27751e-005 -13.1047 6.56162 -0.649877 177.663 -27.3799 -95.072 -151.676 -53.1938 -48.1429 -86.24 6.36111e-015 -6.36111e-015 -71.3403 -70.6334 -79.1482 -179.853 9.64348 89.1207 -74.6974 74.4436 -19.3141 -120.683 6.36111e-015 1.59028e-015 -90.4356 46.22 100.055 -28.6344 -1.37604 -178.831 -52.4268 3.18055e-015 -0 25.8114 13.0866 -19.4171 90 1.19271e-015 -0 -27.8698 -17.2441 150.94 -65.7775 0 1.59028e-015 38.5749 1.63736 -0.74458 90 -7.45443e-017 -0 
157.369 85.1077 -41.3331 88.5283 -37.5522 9.46196 -0.336622 1.27582 0.677079 -0.688569 2.54801 1.36233 -0.688568 2.54801 1.36232 -8.30748e-012 -9.0191e-006 -5.27751e-005 -10.5341 3.90509 -0.564242 177.551 -27.715 -95.2542 -150.052 -54.1935 -46.5782 -85.9736 0 6.36111e-015 -72.552 -71.0766 -80.3728 -179.838 9.38358 89.0095 -70.9181 73.7709 -23.9702 -121.978 -6.36111e-015 -6.36111e-015 -90.8298 47.8349 100.257 -18.9176 -3.80987 -178.737 -34.9183 -9.54166e-015 -0 12.0719 13.4849 -18.4908 90 -1.19271e-015 -3.18055e-015 -20.4149 -24.4734 153.161 -52.7067 -3.18056e-015 3.18056e-015 26.851 1.09223 0.58427 90 2.38542e-015 -6.36111e-015 
157.296 91.5997 -44.5431 88.308 -32.0633 9.77789 -0.940174 1.09582 0.509467 -1.89058 2.18354 1.03732 -1.89058 2.18354 1.03731 -8.30748e-012 -9.0191e-006 -5.27751e-005 -8.81464 1.89697 -0.515858 177.513 -27.7498 -95.3301 -147.832 -55.0854 -44.2436 -84.8928 6.36111e-015 -3.18055e-015 -74.3044 -71.2254 -82.2313 -179.699 9.31169 88.1425 -69.764 71.945 -25.2422 -122.034 -3.18055e-015 3.18055e-015 -90.8576 48.9527 100.057 -12.2111 -6.73951 -178.971 -17.5072 0 -1.59028e-015 -11.7983 13.9777 -18.2498 90 -1.59028e-015 6.36111e-015 -14.659 -30.2828 155.106 -40.3552 -3.18056e-015 1.59028e-015 8.51257 -0.293951 3.69238 90 1.59028e-015 -0 
157.9 97.3735 -47.1885 88.0492 -26.3088 9.55372 -1.30735 0.853418 0.383351 -2.62081 1.69831 0.786394 -2.62081 1.69831 0.786384 -8.31106e-012 -9.0191e-006 -5.27751e-005 -8.03936 0.101869 -0.631489 177.829 -28.0779 -94.6049 -146.179 -54.3962 -42.493 -82.2227 0 -3.18055e-015 -74.8298 -71.4113 -82.7573 -179.688 9.37183 88.084 -67.3472 71.5513 -27.9743 -121.176 0 -1.59028e-015 -90.8777 49.5357 99.9608 -10.9407 -3.28637 -178.404 -10.1722 -9.54166e-015 3.18055e-015 -31.4812 14.2926 -20.8754 90 3.18055e-015 -1.90833e-014 -8.92477 -33.6287 158.753 -27.7762 0 -0 -15.0995 -3.41979 5.80401 90 3.18055e-015 3.18055e-015 
159.012 102.294 -49.4106 87.0545 -20.9606 9.07645 -1.37469 0.720195 0.296783 -2.75342 1.43351 0.611019 -2.75342 1.43351 0.61101 -8.30828e-012 -9.0191e-006 -5.27751e-005 -7.68123 -1.59538 -1.47745 178.129 -27.5745 -94.037 -145.442 -54.4532 -41.7852 -79.3816 -7.95139e-016 -3.18055e-015 -74.3104 -71.7018 -82.1372 -179.7 9.19765 88.1265 -67.7424 71.5376 -27.3556 -119.28 0 -0 -90.7666 49.9789 99.7232 -14.6739 -1.16647 -179.125 -19.3625 3.18055e-015 -3.18055e-015 -24.1505 12.9476 -18.8699 90 -1.19271e-015 -3.18055e-015 -0.0251585 -32.5251 164.061 -13.8393 0 1.59028e-015 -33.0709 -8.45703 11.9384 90 -3.18055e-015 -6.36111e-015 
160.484 105.859 -51.6986 86.9189 -16.4944 8.40854 -1.48983 0.803202 0.259831 -2.98372 1.59983 0.540728 -2.98372 1.59983 0.540719 -8.30967e-012 -9.0191e-006 -5.27751e-005 -6.83944 -3.2951 -1.72791 178.077 -26.7376 -94.2674 -145.541 -55.1651 -41.4535 -75.773 -7.95139e-016 -0 -73.0742 -72.1273 -80.7208 -179.734 8.88345 88.278 -67.2863 71.7392 -27.4105 -116.966 -4.77083e-015 -0 -90.4488 50.7956 99.1435 -17.4952 -0.825284 -178.688 -22.9836 3.18055e-015 1.59028e-015 -25.6665 12.9185 -18.7325 90 9.44227e-016 -9.54166e-015 3.081 -26.163 167.682 -12.8073 3.18056e-015 -7.95139e-016 -30.9641 -10.9198 15.6512 90 1.27222e-014 -3.18055e-015 
161.631 108.513 -53.9577 85.9895 -12.6485 8.27819 -1.42569 0.824758 -0.00219604 -2.8518 1.64978 0.0163237 -2.8518 1.64978 0.0163145 -8.30967e-012 -9.0191e-006 -5.27751e-005 -5.70268 -5.09922 -1.28275 178.035 -26.1187 -94.4551 -145.814 -55.0329 -41.4252 -70.881 2.38542e-015 -0 -71.842 -72.3967 -79.3459 -179.774 8.24467 88.4219 -67.0388 71.6715 -27.9319 -113.502 -3.18055e-015 -0 -89.804 51.1467 98.2446 -16.0247 -3.76315 -179.001 -18.5471 3.18055e-015 1.59028e-015 -24.4704 15.2838 -22.5752 90 -1.59028e-015 6.36111e-015 3.94214 -23.4004 169.125 -14.5492 0 -7.95139e-016 -28.7965 -10.2756 14.7271 90 3.18055e-015 7.95139e-015 
162.73 110.095 -56.3615 85.484 -8.25334 8.26808 -1.37096 0.712469 -0.32902 -2.73813 1.43306 -0.640785 -2.73813 1.43306 -0.640795 -8.30519e-012 -9.0191e-006 -5.27751e-005 -5.38456 -7.29026 -1.39244 178.045 -26.1653 -94.4268 -149.29 -54.7198 -43.3341 -64.7014 -1.59028e-015 -1.27222e-014 -70.5527 -71.0397 -78.2246 -179.856 8.02056 88.9686 -74.2241 72.6858 -21.244 -106.546 -7.95139e-016 1.59028e-015 -88.7103 51.9625 96.6995 -15.5938 -4.46602 -178.866 -14.6998 -1.59028e-015 -0 -19.4273 15.6015 -23.323 90 1.59028e-015 3.18055e-015 5.26072 -25.1656 170.752 -12.8653 0 1.59028e-015 -29.4268 -10.2632 14.7105 90 0 -3.18055e-015 
164.161 110.321 -58.7447 86.0882 -3.77462 8.63171 -1.44519 0.773488 -0.753781 -2.88049 1.56614 -1.48783 -2.88049 1.56614 -1.48784 -8.30662e-012 -9.0191e-006 -5.27751e-005 -6.32549 -10.0095 -1.31932 178.109 -25.9704 -94.3119 -157.088 -55.7493 -47.4864 -58.5568 -3.18055e-015 -0 -73.2158 -66.5796 -81.9441 -179.977 9.67501 89.8621 -101.333 72.7743 5.23356 -90.6258 0 3.18055e-015 -86.1858 52.8983 93.3636 -17.6761 -3.48565 -178.496 -12.7177 0 -1.59028e-015 -15.2027 14.8989 -22.3312 90 -1.59028e-015 -0 4.90707 -27.6541 171.697 -11.1133 0 -1.59028e-015 -29.3859 -10.0283 14.3806 90 -3.18055e-015 4.77083e-015 
165.744 109.337 -61.0856 86.8834 -0.546517 9.21932 -1.52863 1.04602 -1.28806 -3.03413 2.12624 -2.54822 -3.03413 2.12625 -2.54823 -8.30785e-012 -9.0191e-006 -5.27751e-005 -6.15158 -12.2632 0.174659 178.022 -25.9013 -94.5204 -168.062 -59.3988 -52.7385 -54.8028 0 -3.18055e-015 -78.0021 -59.2751 -88.6794 179.677 12.5995 91.4782 -134.749 65.1558 38.1995 -61.0443 0 -3.18055e-015 -81.582 54.0919 87.4936 -19.7118 -4.40919 -177.916 -9.51045 -1.59028e-015 -0 -16.5422 13.2997 -19.7669 90 0 -3.18055e-015 3.43078 -30.0517 171.392 -10.1953 -3.18056e-015 -0 -29.6586 -8.14259 11.605 90 6.36111e-015 -3.18055e-015 
167.328 107.262 -63.3499 86.7748 0.848352 9.87349 -1.39428 1.66859 -1.80431 -2.73708 3.38025 -3.5696 -2.73708 3.38025 -3.56961 -8.30987e-012 -9.0191e-006 -5.27751e-005 -5.01817 -15.0494 1.41187 178.195 -25.2355 -94.2272 -175.892 -63.9632 -55.5949 -54.1814 -3.18055e-015 -6.36111e-015 -79.0808 -54.1857 -90.8021 178.925 13.144 94.7176 -149.936 48.7058 57.0864 -20.6625 6.36111e-015 3.18055e-015 -70.4573 60.8836 74.1621 -21.0843 -4.28797 -176.726 -7.2372 1.59028e-015 -1.59028e-015 -17.6701 11.802 -17.4298 90 3.97569e-016 1.59028e-015 2.52942 -29.8971 170.132 -9.98822 0 7.95139e-016 -29.3424 -5.78405 8.20566 90 -3.18055e-015 3.18055e-015 
